<svg width="40" height="40" viewBox="0 0 40 40" fill="none" xmlns="http://www.w3.org/2000/svg">
  <defs>
    <linearGradient id="grad1" x1="0%" y1="0%" x2="100%" y2="100%">
      <stop offset="0%" style="stop-color:#8b5cf6;stop-opacity:1" />
      <stop offset="100%" style="stop-color:#f97316;stop-opacity:1" />
    </linearGradient>
  </defs>
  <circle cx="20" cy="20" r="18" fill="url(#grad1)" stroke="#333" stroke-width="2"/>
  <path d="M12 16C12 13.7909 13.7909 12 16 12H24C26.2091 12 28 13.7909 28 16V24C28 26.2091 26.2091 28 24 28H16C13.7909 28 12 26.2091 12 24V16Z" fill="white" opacity="0.9"/>
  <path d="M16 18C16 16.8954 16.8954 16 18 16H22C23.1046 16 24 16.8954 24 18V22C24 23.1046 23.1046 24 22 24H18C16.8954 24 16 23.1046 16 22V18Z" fill="url(#grad1)"/>
  <circle cx="18" cy="19" r="1" fill="white"/>
  <circle cx="22" cy="19" r="1" fill="white"/>
  <path d="M18 22C18 21.4477 18.4477 21 19 21H21C21.5523 21 22 21.4477 22 22C22 22.5523 21.5523 23 21 23H19C18.4477 23 18 22.5523 18 22Z" fill="white"/>
</svg>
