<svg width="40" height="40" viewBox="0 0 40 40" fill="none" xmlns="http://www.w3.org/2000/svg">
  <defs>
    <linearGradient id="grad2" x1="0%" y1="0%" x2="100%" y2="100%">
      <stop offset="0%" style="stop-color:#06b6d4;stop-opacity:1" />
      <stop offset="100%" style="stop-color:#3b82f6;stop-opacity:1" />
    </linearGradient>
  </defs>
  <circle cx="20" cy="20" r="18" fill="url(#grad2)" stroke="#333" stroke-width="2"/>
  <path d="M20 12C15.5817 12 12 15.5817 12 20C12 24.4183 15.5817 28 20 28C24.4183 28 28 24.4183 28 20C28 15.5817 24.4183 12 20 12Z" fill="white" opacity="0.9"/>
  <circle cx="16" cy="18" r="2" fill="url(#grad2)"/>
  <circle cx="24" cy="18" r="2" fill="url(#grad2)"/>
  <path d="M16 24C16 21.7909 17.7909 20 20 20C22.2091 20 24 21.7909 24 24" stroke="url(#grad2)" stroke-width="2" stroke-linecap="round"/>
  <path d="M20 16V14" stroke="url(#grad2)" stroke-width="2" stroke-linecap="round"/>
  <path d="M20 26V24" stroke="url(#grad2)" stroke-width="2" stroke-linecap="round"/>
</svg>
